<svg xmlns="http://www.w3.org/2000/svg" width="93" height="168" viewBox="0 0 93 168">
    <g fill="none" fill-rule="nonzero">
        <path fill="#759BD3" d="M71.713 118.858a4.437 4.437 0 0 0-3.757 1.098 4.23 4.23 0 0 0-1.259 3.679 1.417 1.417 0 0 0 2.818-.31 1.482 1.482 0 0 1 .376-1.314c.37-.31.856-.446 1.334-.375a2.995 2.995 0 0 1 2.377 2.496 5.28 5.28 0 0 1-.94 3.905 4.783 4.783 0 0 1-4.086 2.008c-3.664-.15-4.97-3.163-4.97-5.931v-18.63V100.18c.273-4.327 2.152-7.997 5.91-11.695.223-.241.433-.495.629-.76 12.024-9.676 22.451-25.144 22.451-42.582C92.596 15.843 71.864 0 46.293 0 20.723 0 0 15.843 0 45.144 0 62.667 10.474 78.21 22.545 87.867c.161.215.334.422.517.62 3.758 3.697 5.636 7.367 5.984 11.684v23.933c0 3.238-1.578 5.434-4.227 5.857a5.11 5.11 0 0 1-5.637-3.407 5.026 5.026 0 0 1-.187-2.44 2.986 2.986 0 0 1 2.376-2.497c.476-.076.96.062 1.325.375.331.355.468.85.366 1.324a1.398 1.398 0 0 0 1.24 1.548 1.418 1.418 0 0 0 1.56-1.239 4.24 4.24 0 0 0-1.24-3.679 4.38 4.38 0 0 0-3.758-1.098 5.812 5.812 0 0 0-4.697 4.806 7.811 7.811 0 0 0 .291 3.754 7.947 7.947 0 0 0 7.515 5.415 7.87 7.87 0 0 0 1.23-.103c4.003-.648 6.577-4.036 6.577-8.635v-21.399a18.698 18.698 0 0 1 3.522-1.999v34.774c0 4.872-3.953 8.822-8.83 8.822a1.408 1.408 0 1 0 0 2.816c6.431-.006 11.643-5.213 11.649-11.638V99.674a26.981 26.981 0 0 1 3.532-.78v66.891a1.408 1.408 0 0 0 2.818 0v-67.19H47.993v67.19a1.408 1.408 0 0 0 2.819 0v-66.89c1.19.18 2.367.44 3.523.779v36.106c.01 6.423 5.219 11.627 11.648 11.638a1.408 1.408 0 1 0 0-2.816c-4.875-.005-8.825-3.952-8.83-8.822v-35.064a18.492 18.492 0 0 1 3.532 1.999v21.399c0 5.04 3.081 8.56 7.675 8.747h.31a7.602 7.602 0 0 0 6.275-3.248 8.197 8.197 0 0 0 1.371-5.95 5.821 5.821 0 0 0-4.603-4.805z"/>
        <ellipse cx="34.945" cy="78.134" fill="#4B7CB7" rx="10.296" ry="10.286"/>
        <ellipse cx="34.945" cy="78.134" fill="#FFF" rx="7.806" ry="7.799"/>
        <ellipse cx="34.945" cy="78.134" fill="#154084" rx="3.119" ry="3.116"/>
        <ellipse cx="57.651" cy="78.134" fill="#4B7CB7" rx="10.296" ry="10.286"/>
        <ellipse cx="57.651" cy="78.134" fill="#FFF" rx="7.806" ry="7.799"/>
        <ellipse cx="57.651" cy="78.134" fill="#154084" rx="3.119" ry="3.116"/>
        <ellipse cx="68.735" cy="26.101" fill="#4B7CB7" rx="2.583" ry="2.581"/>
        <ellipse cx="72.606" cy="35.777" fill="#4B7CB7" rx="3.87" ry="3.867"/>
        <ellipse cx="62.601" cy="34.163" fill="#4B7CB7" rx="2.264" ry="2.262"/>
    </g>
</svg>
