<svg xmlns="http://www.w3.org/2000/svg" width="417" height="69" viewBox="0 0 417 69">
    <g fill="none" fill-rule="nonzero">
        <path fill="#FFF" d="M3.75 54.94h.9v10.71h-.9zM13.9 63c-.13 1.69-1.06 2.82-2.56 2.82-1.68 0-2.67-1.17-2.67-4.17 0-2.78 1-4.16 2.74-4.16 1.74 0 2.59 1.23 2.59 3.88v.33H9.63v.38c0 2.29.81 3 1.69 3 .88 0 1.53-.69 1.68-2.08h.9zm-.9-2c0-2-.6-2.7-1.7-2.7S9.64 59 9.63 61H13zM28.2 57.68h.8v7.4c0 2.22-.8 3.33-2.61 3.33-1.56 0-2.36-.81-2.37-2h.9c0 .76.7 1.2 1.5 1.2 1.09 0 1.68-.75 1.68-2.18v-1.21a1.85 1.85 0 0 1-1.86 1.43c-1.25 0-2.46-.8-2.46-4 0-2.76.79-4.16 2.55-4.16a1.89 1.89 0 0 1 1.86 1.41l.01-1.22zm-1.79 7.22c1.08 0 1.7-.78 1.7-3.33s-.62-3.32-1.7-3.32-1.69.8-1.69 3.32c0 2.52.61 3.33 1.69 3.33zM38.2 63c-.13 1.69-1.06 2.82-2.56 2.82C34 65.83 33 64.66 33 61.66c0-2.78 1-4.16 2.74-4.16 1.74 0 2.57 1.22 2.57 3.87v.33h-4.38v.38c0 2.29.81 3 1.69 3 .88 0 1.53-.69 1.68-2.07l.9-.01zm-.88-2c0-2-.6-2.7-1.7-2.7s-1.68.7-1.69 2.7h3.39zm.15-6.39L36 56.68h-.72l1.12-2.12 1.07.05zM42.24 57.68h.81v1.11a2.2 2.2 0 0 1 2-1.29 1.87 1.87 0 0 1 2 2.13v6h-.9v-5.74c0-1.1-.45-1.64-1.37-1.64-.92 0-1.75.8-1.75 2v5.36h-.9l.11-7.93zM56.35 63c-.13 1.69-1.06 2.82-2.56 2.82-1.68 0-2.67-1.17-2.67-4.17 0-2.78 1-4.16 2.74-4.16 1.74 0 2.57 1.22 2.57 3.87v.33h-4.35v.38c0 2.29.81 3 1.69 3 .88 0 1.53-.69 1.68-2.07h.9zm-.88-2c0-2-.6-2.7-1.7-2.7s-1.68.7-1.69 2.7h3.39zm.15-6.39l-1.47 2.12h-.72l1.12-2.12h1.07zM60.39 57.68h.9v1.25a2.07 2.07 0 0 1 2-1.43 1.12 1.12 0 0 1 .31 0v.9a2.27 2.27 0 0 0-.43-.05c-1 0-1.92.72-1.92 2.27v5h-.9l.04-7.94zM66.94 60.05c0-1.63.77-2.55 2.46-2.55s2.25.86 2.25 2.12v4.71c0 .43.15.66.47.66h.25v.66a1.27 1.27 0 0 1-.42.09c-.7 0-1.15-.17-1.15-1v-.27a1.94 1.94 0 0 1-2.06 1.35c-1.39 0-2-.87-2-2.25a2.08 2.08 0 0 1 1.6-2.21l1.7-.48c.64-.16.76-.34.76-1.26a1.21 1.21 0 0 0-1.38-1.38c-1.08 0-1.53.65-1.53 1.8l-.95.01zm3.81 1.1c-.1.28-.6.42-1 .52l-.75.2a1.54 1.54 0 0 0-1.36 1.65c0 .94.48 1.56 1.26 1.56 1.09 0 1.84-.81 1.84-2.25l.01-1.68zM76.44 58.43h-1.1v-.75h1.1v-2.2h.9v2.2h1.41v.75h-1.41v5.72c0 .64.27.84.85.84a2 2 0 0 0 .56-.09v.75a1.48 1.48 0 0 1-.63.09c-1.22 0-1.68-.33-1.68-1.4v-5.91zM87.18 63c-.14 1.69-1.07 2.82-2.57 2.82-1.68 0-2.67-1.17-2.67-4.17 0-2.78 1-4.16 2.75-4.16s2.56 1.22 2.56 3.87v.33H82.9v.38c0 2.29.81 3 1.7 3 .89 0 1.53-.69 1.68-2.07h.9zm-.89-2c0-2-.6-2.7-1.69-2.7-1.09 0-1.68.7-1.7 2.7h3.39zM91.21 57.68h.9v5.61c0 1.31.42 1.79 1.38 1.79a1.81 1.81 0 0 0 1.74-2v-5.4h.9v8h-.81v-1.14a2.2 2.2 0 0 1-2 1.29 1.87 1.87 0 0 1-2-2.13l-.11-6.02zM100.42 57.68h.9v1.25a2.09 2.09 0 0 1 2-1.43 1.19 1.19 0 0 1 .32 0v.9a2.28 2.28 0 0 0-.44-.05c-1 0-1.92.72-1.92 2.27v5h-.9l.04-7.94zM117.49 64.33a2 2 0 0 1-1.95 1.5c-1.75 0-2.55-1.4-2.55-4.17s.8-4.16 2.55-4.16a1.75 1.75 0 0 1 1.86 1.38v-3.94h.9v10.71h-.81v-1.32zm-1.83.75c.92 0 1.74-.47 1.74-3.42s-.82-3.41-1.74-3.41-1.74.47-1.74 3.41c0 2.94.84 3.42 1.74 3.42zM127.41 63c-.14 1.69-1.07 2.82-2.57 2.82-1.68 0-2.67-1.17-2.67-4.17 0-2.78 1-4.16 2.75-4.16s2.56 1.22 2.56 3.87v.33h-4.35v.38c0 2.29.81 3 1.7 3 .89 0 1.53-.69 1.68-2.07h.9zm-.89-2c0-2-.6-2.7-1.69-2.7-1.09 0-1.68.72-1.7 2.7h3.39zM137.65 54.94h.9v10.71h-.9zM145.23 57.5c1.75 0 2.74 1.38 2.74 4.16 0 2.78-1 4.17-2.74 4.17-1.74 0-2.75-1.37-2.75-4.17s.99-4.16 2.75-4.16zm0 7.58c1 0 1.78-.86 1.78-3.42s-.76-3.41-1.78-3.41-1.79.87-1.79 3.41.77 3.42 1.79 3.42zM151.84 57.68h.9v1.25a2.07 2.07 0 0 1 2-1.43 1.12 1.12 0 0 1 .31 0v.9a2.27 2.27 0 0 0-.43-.05c-1 0-1.92.72-1.92 2.27v5h-.9l.04-7.94zM163.46 63c-.13 1.69-1.06 2.82-2.56 2.82-1.68 0-2.67-1.17-2.67-4.17 0-2.78 1-4.16 2.75-4.16s2.56 1.22 2.56 3.87v.33h-4.35v.38c0 2.29.81 3 1.7 3 .89 0 1.53-.69 1.68-2.07h.89zm-.88-2c0-2-.6-2.7-1.69-2.7-1.09 0-1.68.72-1.7 2.7h3.39zM167.56 57.68h.81v1.11a2.07 2.07 0 0 1 2-1.29 1.57 1.57 0 0 1 1.67 1.4 2 2 0 0 1 2-1.4c1.13 0 1.85.62 1.85 2.06v6.09h-.9v-6c0-1-.42-1.44-1.25-1.44-.83 0-1.62.8-1.62 2v5.36h-.9v-6c0-1-.42-1.44-1.24-1.44-.82 0-1.62.8-1.62 2v5.36h-.9l.1-7.81zM186.55 54.94h.9v1.53h-.9v-1.53zm0 2.74h.9v8h-.9v-8zM191.71 57.68h.81v1.14a2 2 0 0 1 2-1.32c1.79 0 2.54 1.4 2.54 4.17s-.8 4.16-2.55 4.16a1.75 1.75 0 0 1-1.86-1.38v3.84h-.9l-.04-10.61zm2.67.57a1.5 1.5 0 0 0-1.26.71 4.48 4.48 0 0 0-.51 2.71c0 2.94.82 3.41 1.74 3.41s1.74-.47 1.74-3.41c0-2.94-.83-3.42-1.71-3.42zM202.27 61.69c-1.14-.44-1.53-1.1-1.53-1.89a2.1 2.1 0 0 1 2.37-2.3 1.94 1.94 0 0 1 2.19 2.22V60h-.9v-.23c0-1-.47-1.47-1.31-1.47-1.06 0-1.45.56-1.45 1.35 0 .56.18 1 1.08 1.34l1.3.49a2 2 0 0 1 1.49 2 2.21 2.21 0 0 1-2.46 2.37c-1.63 0-2.45-.68-2.45-2.48v-.27h.9v.21c0 1.18.51 1.77 1.53 1.77a1.4 1.4 0 0 0 1.58-1.43 1.44 1.44 0 0 0-1.08-1.47l-1.26-.49zM209.4 57.68h.89v5.61c0 1.31.42 1.79 1.38 1.79a1.81 1.81 0 0 0 1.74-2v-5.4h.9v8h-.81v-1.14a2.22 2.22 0 0 1-2 1.29 1.87 1.87 0 0 1-2-2.13l-.1-6.02zM218.66 57.68h.82v1.11a2.09 2.09 0 0 1 2-1.29 1.56 1.56 0 0 1 1.66 1.4 2 2 0 0 1 2-1.4c1.12 0 1.84.62 1.84 2.06v6.09h-.9v-6c0-1-.42-1.44-1.24-1.44-.82 0-1.62.8-1.62 2v5.36h-.9v-6c0-1-.42-1.44-1.24-1.44-.82 0-1.63.8-1.63 2v5.36h-.9l.11-7.81zM241.7 64.45a1.75 1.75 0 0 1-1.86 1.38c-1.75 0-2.55-1.4-2.55-4.16 0-2.76.75-4.17 2.54-4.17a2 2 0 0 1 2 1.32v-1.14h.81v10.61h-.9l-.04-3.84zm-1.74.63c.92 0 1.74-.47 1.74-3.41a4.48 4.48 0 0 0-.51-2.71 1.5 1.5 0 0 0-1.26-.71c-.88 0-1.71.53-1.71 3.42 0 2.89.84 3.41 1.78 3.41h-.04zM246.8 57.68h.9v5.61c0 1.31.42 1.79 1.38 1.79a1.81 1.81 0 0 0 1.74-2v-5.4h.9v8h-.81v-1.14a2.2 2.2 0 0 1-2 1.29 1.87 1.87 0 0 1-2-2.13l-.11-6.02zM256.07 54.94h.9v1.53h-.9v-1.53zm0 2.74h.9v8h-.9v-8zM268.73 61.69c-1.14-.44-1.53-1.1-1.53-1.89a2.11 2.11 0 0 1 2.37-2.3 1.94 1.94 0 0 1 2.19 2.22V60h-.9v-.23c0-1-.46-1.47-1.3-1.47-1.07 0-1.46.56-1.46 1.35 0 .56.18 1 1.08 1.34l1.31.49a2 2 0 0 1 1.48 2 2.21 2.21 0 0 1-2.46 2.37c-1.63 0-2.44-.68-2.44-2.48v-.27h.9v.21c0 1.18.51 1.77 1.53 1.77a1.39 1.39 0 0 0 1.57-1.43 1.43 1.43 0 0 0-1.07-1.47l-1.27-.49zM280.76 63c-.13 1.69-1.06 2.82-2.56 2.82-1.68 0-2.67-1.17-2.67-4.17 0-2.78 1-4.16 2.74-4.16 1.74 0 2.57 1.22 2.57 3.87v.33h-4.35v.38c0 2.29.81 3 1.69 3 .88 0 1.53-.69 1.68-2.07h.9zm-.88-2c-.05-2-.6-2.7-1.7-2.7s-1.68.72-1.69 2.7h3.39zM284.8 57.68h.81v1.11a2.2 2.2 0 0 1 2-1.29 1.87 1.87 0 0 1 2 2.13v6h-.9v-5.74c0-1.1-.45-1.64-1.37-1.64-.92 0-1.75.8-1.75 2v5.36h-.9l.11-7.93zM294.34 58.43h-1.1v-.75h1.1v-2.2h.9v2.2h1.41v.75h-1.41v5.72c0 .64.27.84.85.84a2 2 0 0 0 .56-.09v.75a1.48 1.48 0 0 1-.63.09c-1.22 0-1.68-.33-1.68-1.4v-5.91zM306.23 54.94h.9v3.94A1.77 1.77 0 0 1 309 57.5c1.76 0 2.55 1.4 2.55 4.16 0 2.76-.79 4.17-2.55 4.17a2 2 0 0 1-1.95-1.5v1.32h-.81l-.01-10.71zm2.64 10.14c.9 0 1.74-.47 1.74-3.42s-.84-3.41-1.74-3.41-1.74.47-1.74 3.41c0 2.94.87 3.42 1.74 3.42zM317.86 57.5c1.75 0 2.74 1.38 2.74 4.16 0 2.78-1 4.17-2.74 4.17-1.74 0-2.75-1.37-2.75-4.17s.99-4.16 2.75-4.16zm0 7.58c1 0 1.78-.86 1.78-3.42s-.76-3.41-1.78-3.41-1.79.87-1.79 3.41.77 3.42 1.79 3.42zM324.47 57.68h.81v1.11a2.22 2.22 0 0 1 2-1.29 1.87 1.87 0 0 1 2 2.13v6h-.9v-5.74c0-1.1-.45-1.64-1.36-1.64-1.07 0-1.76.8-1.76 2v5.36h-.9l.11-7.93zM339.89 54.94h.9v10.71h-.9zM350.05 63c-.14 1.69-1.07 2.82-2.57 2.82-1.68 0-2.67-1.17-2.67-4.17 0-2.78 1-4.16 2.75-4.16s2.56 1.22 2.56 3.87v.33h-4.35v.38c0 2.29.81 3 1.7 3 .89 0 1.53-.69 1.68-2.07h.9zm-.89-2c0-2-.6-2.7-1.69-2.7-1.09 0-1.68.72-1.7 2.7h3.39zM360.14 57.68h.86v1.14a2 2 0 0 1 2-1.32c1.78 0 2.53 1.4 2.53 4.17s-.79 4.16-2.55 4.16a1.77 1.77 0 0 1-1.86-1.38v3.84h-.9l-.08-10.61zm2.67.57a1.51 1.51 0 0 0-1.26.71 4.56 4.56 0 0 0-.51 2.71c0 2.94.83 3.41 1.74 3.41s1.74-.47 1.74-3.41c0-2.94-.82-3.42-1.71-3.42zM369.28 60.05c0-1.63.76-2.55 2.46-2.55s2.25.86 2.25 2.12v4.71c0 .43.15.66.46.66h.26v.66a1.38 1.38 0 0 1-.42.09c-.71 0-1.16-.17-1.16-1v-.27a1.93 1.93 0 0 1-2.05 1.35c-1.4 0-2-.87-2-2.25a2.08 2.08 0 0 1 1.61-2.21l1.69-.48c.65-.16.77-.34.77-1.26a1.22 1.22 0 0 0-1.38-1.38c-1.08 0-1.53.65-1.53 1.8l-.96.01zm3.81 1.1c-.11.28-.6.42-1 .52l-.75.2a1.55 1.55 0 0 0-1.34 1.65c0 .94.48 1.56 1.26 1.56 1.1 0 1.85-.81 1.85-2.25l-.02-1.68zM379.64 61.69c-1.14-.44-1.53-1.1-1.53-1.89a2.11 2.11 0 0 1 2.37-2.3 1.94 1.94 0 0 1 2.19 2.22V60h-.9v-.23c0-1-.46-1.47-1.3-1.47-1.07 0-1.46.56-1.46 1.35 0 .56.18 1 1.08 1.34l1.31.49a2 2 0 0 1 1.48 2 2.21 2.21 0 0 1-2.46 2.37c-1.63 0-2.44-.68-2.44-2.48v-.27h.9v.21c0 1.18.51 1.77 1.53 1.77a1.39 1.39 0 0 0 1.59-1.43 1.43 1.43 0 0 0-1.08-1.47l-1.28-.49zM387.1 58.43H386v-.75h1.1v-2.2h.9v2.2h1.41v.75H388v5.72c0 .64.27.84.85.84a2 2 0 0 0 .56-.09v.75a1.48 1.48 0 0 1-.63.09c-1.22 0-1.68-.33-1.68-1.4v-5.91zM392.77 60.05c0-1.63.76-2.55 2.46-2.55s2.25.86 2.25 2.12v4.71c0 .43.15.66.46.66h.26v.66a1.38 1.38 0 0 1-.42.09c-.71 0-1.16-.17-1.16-1v-.27a1.93 1.93 0 0 1-2 1.35c-1.4 0-2-.87-2-2.25a2.08 2.08 0 0 1 1.61-2.21l1.69-.48c.65-.16.77-.34.77-1.26a1.22 1.22 0 0 0-1.38-1.38c-1.08 0-1.53.65-1.53 1.8l-1.01.01zm3.81 1.1c-.11.28-.6.42-1 .52l-.75.2a1.55 1.55 0 0 0-1.37 1.65c0 .94.48 1.56 1.26 1.56 1.1 0 1.85-.81 1.85-2.25l.01-1.68zM406 57.68h.81v7.4c0 2.22-.79 3.33-2.61 3.33-1.56 0-2.35-.81-2.37-2h.9c0 .76.71 1.2 1.5 1.2 1.1 0 1.68-.75 1.68-2.18v-1.21a1.85 1.85 0 0 1-1.86 1.43c-1.24 0-2.46-.8-2.46-4 0-2.76.8-4.16 2.55-4.16a1.88 1.88 0 0 1 1.86 1.42v-1.23zm-1.78 7.22c1.08 0 1.69-.78 1.69-3.33s-.61-3.32-1.69-3.32-1.7.8-1.7 3.32c0 2.52.66 3.33 1.74 3.33h-.04zM411 60.05c0-1.63.76-2.55 2.46-2.55s2.25.86 2.25 2.12v4.71c0 .43.15.66.46.66h.26v.66a1.38 1.38 0 0 1-.42.09c-.71 0-1.16-.17-1.16-1v-.27a1.93 1.93 0 0 1-2.05 1.35c-1.4 0-2-.87-2-2.25a2.08 2.08 0 0 1 1.61-2.21l1.69-.48c.65-.16.77-.34.77-1.26a1.22 1.22 0 0 0-1.38-1.38c-1.08 0-1.53.65-1.53 1.8l-.96.01zm3.81 1.1c-.11.28-.6.42-1 .52l-.75.2a1.55 1.55 0 0 0-1.37 1.65c0 .94.48 1.56 1.26 1.56 1.1 0 1.85-.81 1.85-2.25l.01-1.68z"/>
        <g fill="#000" opacity=".2">
            <path d="M0 12.3h3v4.52h.15a9.23 9.23 0 0 1 8.85-5.3c3.54 0 6.71 1.71 7.7 5.25a9.06 9.06 0 0 1 8.53-5.25c5.92 0 8.89 3.12 8.89 9.41v18.2H33.8V21.08c0-4.42-1.61-6.81-6.34-6.81-5.67 0-7.28 4.68-7.28 9.67v15.19H16.9v-18.2c0-3.64-1.4-6.66-5.62-6.66-5.61 0-8 4.27-8 9.88v15H0V12.3zM50.28 20.51c.37-6.29 4.68-9 10.87-9 4.73 0 9.88 1.4 9.88 8.63V34.4a1.72 1.72 0 0 0 1.93 2 2.6 2.6 0 0 0 1-.2v2.75a9.09 9.09 0 0 1-2.14.21c-3.32 0-3.84-1.92-3.84-4.68h-.11c-2.34 3.48-4.57 5.46-9.77 5.46-5 0-9-2.44-9-7.85 0-7.49 7.33-7.8 14.4-8.64 2.71-.26 4.22-.72 4.22-3.64 0-4.42-3.12-5.51-7-5.51-4.11 0-7 1.87-7.18 6.24l-3.26-.03zm17.48 3.95h-.11c-.41.78-1.87 1-2.75 1.2-5.57 1-12.48 1-12.48 6.19 0 3.28 2.86 5.3 6 5.3 5 0 9.36-3.17 9.36-8.42l-.02-4.27zM100.93 20.15c-.15-4.06-3.27-5.88-7-5.88-2.91 0-6.34 1.15-6.34 4.63 0 2.86 3.27 4 5.56 4.52l4.37 1c3.74.57 7.64 2.76 7.64 7.44 0 5.82-5.77 8.06-10.76 8.06-6.29 0-10.45-2.86-11-9.47h3.27c.26 4.43 3.54 6.71 7.91 6.71 3.12 0 7.33-1.35 7.33-5.09 0-3.12-2.91-4.16-5.88-4.89l-4.21-.94c-4.26-1.09-7.49-2.65-7.49-7.17 0-5.46 5.36-7.54 10.09-7.54 5.41 0 9.57 2.8 9.83 8.63l-3.32-.01zM133.22 20.15c-.15-4.06-3.27-5.88-7-5.88-2.91 0-6.34 1.15-6.34 4.63 0 2.86 3.27 4 5.56 4.52l4.37 1c3.75.57 7.65 2.76 7.65 7.44 0 5.82-5.78 8.06-10.77 8.06-6.29 0-10.45-2.86-11-9.47h3.27c.26 4.43 3.54 6.71 7.91 6.71 3.12 0 7.33-1.35 7.33-5.09 0-3.12-2.91-4.16-5.88-4.89l-4.21-.94c-4.26-1.09-7.49-2.65-7.49-7.17 0-5.46 5.36-7.54 10.09-7.54 5.41 0 9.57 2.8 9.83 8.63l-3.32-.01zM149.5 2h3.27v5.25h-3.27V2zm0 10.3h3.27v26.83h-3.27V12.3zM166.4 2h3.27v37.13h-3.27zM183.3 2h3.27v5.25h-3.27V2zm0 10.3h3.27v26.83h-3.27V12.3zM199.83 20.51c.37-6.29 4.68-9 10.87-9 4.74 0 9.88 1.4 9.88 8.63V34.4a1.72 1.72 0 0 0 1.93 2 2.6 2.6 0 0 0 1-.2v2.75a9.06 9.06 0 0 1-2.13.21c-3.33 0-3.85-1.92-3.85-4.68h-.11c-2.34 3.48-4.57 5.46-9.77 5.46-5 0-9-2.44-9-7.85 0-7.49 7.33-7.8 14.41-8.64 2.7-.26 4.21-.72 4.21-3.64 0-4.42-3.12-5.51-7-5.51-4.11 0-7 1.87-7.18 6.24l-3.26-.03zm17.48 3.95h-.11c-.41.78-1.87 1-2.75 1.2-5.57 1-12.48 1-12.48 6.19 0 3.28 2.86 5.3 6 5.3 5 0 9.36-3.17 9.36-8.42l-.02-4.27zM256.2 2h3.28v5.25h-3.28V2zm0 10.3h3.28v26.83h-3.28V12.3zM273.05 12.3h3v5.09h.1c1.51-3.69 5.2-5.87 9.57-5.87 8.16 0 12.06 6.55 12.06 14.19s-3.9 14.2-12.06 14.2c-3.95 0-7.91-2-9.31-5.88h-.1v15h-3.28l.02-36.73zm12.69 2c-7.28 0-9.41 5.36-9.41 11.44 0 5.57 2.49 11.44 9.41 11.44 6.24 0 8.79-5.87 8.79-11.44 0-5.57-2.53-11.47-8.79-11.47v.03zM326.25 20.15c-.16-4.06-3.28-5.88-7-5.88-2.92 0-6.35 1.15-6.35 4.63 0 2.86 3.28 4 5.57 4.52l4.36 1c3.75.57 7.65 2.76 7.65 7.44 0 5.82-5.77 8.06-10.77 8.06-6.29 0-10.45-2.86-11-9.47h3.27c.27 4.43 3.54 6.71 7.91 6.71 3.12 0 7.33-1.35 7.33-5.09 0-3.12-2.91-4.16-5.87-4.89l-4.22-.94c-4.26-1.09-7.49-2.65-7.49-7.17 0-5.46 5.36-7.54 10.09-7.54 5.41 0 9.57 2.8 9.83 8.63l-3.31-.01zM364.21 39.13h-3v-4.84h-.1a10 10 0 0 1-9.26 5.62c-6.81 0-9.41-3.9-9.41-10.19V12.3h3.27v17.47c.16 4.83 2 7.38 7.18 7.38 5.62 0 8.06-5.3 8.06-10.76V12.3h3.28l-.02 26.83zM377.67 12.3h3v4.52h.15a9.24 9.24 0 0 1 8.79-5.3c3.54 0 6.71 1.71 7.7 5.25a9.06 9.06 0 0 1 8.53-5.25c5.93 0 8.89 3.12 8.89 9.41v18.2h-3.28V21.08c0-4.42-1.61-6.81-6.34-6.81-5.67 0-7.28 4.68-7.28 9.67v15.19h-3.28v-18.2c0-3.64-1.4-6.66-5.61-6.66-5.62 0-8 4.27-8 9.88v15h-3.28l.01-26.85z"/>
        </g>
        <path fill="#FFF" d="M2 10.3h3v4.52h.15A9.23 9.23 0 0 1 14 9.52c3.54 0 6.71 1.71 7.7 5.25a9.06 9.06 0 0 1 8.53-5.25c5.92 0 8.89 3.12 8.89 9.41v18.2H35.8V19.08c0-4.42-1.61-6.81-6.34-6.81-5.67 0-7.28 4.68-7.28 9.67v15.19H18.9v-18.2c0-3.64-1.4-6.66-5.62-6.66-5.61 0-8 4.27-8 9.88v15H2V10.3zM52.28 18.51c.37-6.29 4.68-9 10.87-9 4.73 0 9.88 1.4 9.88 8.63V32.4a1.72 1.72 0 0 0 1.93 2 2.6 2.6 0 0 0 1-.2v2.75a9.09 9.09 0 0 1-2.14.21c-3.32 0-3.84-1.92-3.84-4.68h-.11c-2.34 3.48-4.57 5.46-9.77 5.46-5 0-9-2.44-9-7.85 0-7.49 7.33-7.8 14.4-8.64 2.71-.26 4.22-.72 4.22-3.64 0-4.42-3.12-5.51-7-5.51-4.11 0-7 1.87-7.18 6.24l-3.26-.03zm17.48 3.95h-.11c-.41.78-1.87 1-2.75 1.2-5.57 1-12.48 1-12.48 6.19 0 3.28 2.86 5.3 6 5.3 5 0 9.36-3.17 9.36-8.42l-.02-4.27zM102.93 18.15c-.15-4.06-3.27-5.88-7-5.88-2.91 0-6.34 1.15-6.34 4.63 0 2.86 3.27 4 5.56 4.52l4.37 1c3.74.57 7.64 2.76 7.64 7.44 0 5.82-5.77 8.06-10.76 8.06-6.29 0-10.45-2.86-11-9.47h3.27c.26 4.43 3.54 6.71 7.91 6.71 3.12 0 7.33-1.35 7.33-5.09 0-3.12-2.91-4.16-5.88-4.89l-4.21-.94c-4.26-1.09-7.49-2.65-7.49-7.17 0-5.46 5.36-7.54 10.09-7.54 5.41 0 9.57 2.8 9.83 8.63l-3.32-.01zM135.22 18.15c-.15-4.06-3.27-5.88-7-5.88-2.91 0-6.34 1.15-6.34 4.63 0 2.86 3.27 4 5.56 4.52l4.37 1c3.75.57 7.65 2.76 7.65 7.44 0 5.82-5.78 8.06-10.77 8.06-6.29 0-10.45-2.86-11-9.47h3.27c.26 4.43 3.54 6.71 7.91 6.71 3.12 0 7.33-1.35 7.33-5.09 0-3.12-2.91-4.16-5.88-4.89l-4.21-.94c-4.26-1.09-7.49-2.65-7.49-7.17 0-5.46 5.36-7.54 10.09-7.54 5.41 0 9.57 2.8 9.83 8.63l-3.32-.01zM151.5 0h3.27v5.25h-3.27V0zm0 10.3h3.27v26.83h-3.27V10.3zM168.4 0h3.27v37.13h-3.27zM185.3 0h3.27v5.25h-3.27V0zm0 10.3h3.27v26.83h-3.27V10.3zM201.83 18.51c.37-6.29 4.68-9 10.87-9 4.74 0 9.88 1.4 9.88 8.63V32.4a1.72 1.72 0 0 0 1.93 2 2.6 2.6 0 0 0 1-.2v2.75a9.06 9.06 0 0 1-2.13.21c-3.33 0-3.85-1.92-3.85-4.68h-.11c-2.34 3.48-4.57 5.46-9.77 5.46-5 0-9-2.44-9-7.85 0-7.49 7.33-7.8 14.41-8.64 2.7-.26 4.21-.72 4.21-3.64 0-4.42-3.12-5.51-7-5.51-4.11 0-7 1.87-7.18 6.24l-3.26-.03zm17.48 3.95h-.11c-.41.78-1.87 1-2.75 1.2-5.57 1-12.48 1-12.48 6.19 0 3.28 2.86 5.3 6 5.3 5 0 9.36-3.17 9.36-8.42l-.02-4.27zM258.2 0h3.28v5.25h-3.28V0zm0 10.3h3.28v26.83h-3.28V10.3zM275.05 10.3h3v5.09h.1c1.51-3.69 5.2-5.87 9.57-5.87 8.16 0 12.06 6.55 12.06 14.19s-3.9 14.2-12.06 14.2c-3.95 0-7.91-2-9.31-5.88h-.1v15h-3.28l.02-36.73zm12.69 2c-7.28 0-9.41 5.36-9.41 11.44 0 5.57 2.49 11.44 9.41 11.44 6.24 0 8.79-5.87 8.79-11.44 0-5.57-2.53-11.47-8.79-11.47v.03zM328.25 18.15c-.16-4.06-3.28-5.88-7-5.88-2.92 0-6.35 1.15-6.35 4.63 0 2.86 3.28 4 5.57 4.52l4.36 1c3.75.57 7.65 2.76 7.65 7.44 0 5.82-5.77 8.06-10.77 8.06-6.29 0-10.45-2.86-11-9.47h3.27c.27 4.43 3.54 6.71 7.91 6.71 3.12 0 7.33-1.35 7.33-5.09 0-3.12-2.91-4.16-5.87-4.89l-4.22-.94c-4.26-1.09-7.49-2.65-7.49-7.17 0-5.46 5.36-7.54 10.09-7.54 5.41 0 9.57 2.8 9.83 8.63l-3.31-.01zM366.21 37.13h-3v-4.84h-.1a10 10 0 0 1-9.26 5.62c-6.81 0-9.41-3.9-9.41-10.19V10.3h3.27v17.47c.16 4.83 2 7.38 7.18 7.38 5.62 0 8.06-5.3 8.06-10.76V10.3h3.28l-.02 26.83zM379.67 10.3h3v4.52h.15a9.24 9.24 0 0 1 8.79-5.3c3.54 0 6.71 1.71 7.7 5.25a9.06 9.06 0 0 1 8.53-5.25c5.93 0 8.89 3.12 8.89 9.41v18.2h-3.28V19.08c0-4.42-1.61-6.81-6.34-6.81-5.67 0-7.28 4.68-7.28 9.67v15.19h-3.28v-18.2c0-3.64-1.4-6.66-5.61-6.66-5.62 0-8 4.27-8 9.88v15h-3.28l.01-26.85z"/>
    </g>
</svg>
