<svg xmlns="http://www.w3.org/2000/svg" width="429" height="192" viewBox="0 0 429 192">
    <g fill="none" fill-rule="nonzero">
        <path fill="#BCBCBC" d="M0 191.185h412.318c10.772-12.953 16.541-26.618 16.541-40.732C428.86 69.307 238.413 3.11 0 0v191.185z" opacity=".26"/>
        <path fill="#D3C2D1" d="M0 191.185h363.507c25.46-16.418 39.734-34.775 39.734-54.275 0-69.148-180.46-125.203-403.072-125.203H0v179.478z"/>
        <path fill="#FFF" d="M272.574 120.932a32.631 32.631 0 0 0 22.406-30.776 186.858 186.858 0 0 0-3.316-49.761h-57.812a187.074 187.074 0 0 0-3.325 49.76 32.631 32.631 0 0 0 22.377 30.777s4.683.936 5.47 5.123c0 .318.244 3.353.244 3.887 0 4.908-1.724 10.808-6.033 11.08-10.734.6-18.358 2.107-18.358 3.877 0 2.276 12.738 4.13 28.475 4.14 15.736.01 28.475-1.873 28.475-4.14 0-1.77-7.615-3.278-18.36-3.877-4.308-.272-6.031-6.172-6.031-11.08 0-.534.206-3.569.252-3.887.853-4.177 5.536-5.123 5.536-5.123z"/>
        <path fill="#FFCE00" d="M289.097 61.964l-53.053.787s0 3.316-.825 19.078a46.348 46.348 0 0 0 4.74 23.069c3.456 6.883 12.636 11.81 23.417 11.81 12.87 0 23.417-7.006 24.757-15.978 4.018-11.014.964-38.766.964-38.766z"/>
        <ellipse cx="145.186" cy="133.117" fill="#FFF" rx="72.124" ry="14.985"/>
        <ellipse cx="135.352" cy="124.221" fill="#9AB256" rx="11.708" ry="8.898" transform="rotate(-48.99 135.352 124.22)"/>
        <ellipse cx="100.693" cy="127.966" fill="#749923" rx="11.709" ry="8.898"/>
        <ellipse cx="187.805" cy="129.839" fill="#9AB256" rx="11.709" ry="8.898"/>
        <ellipse cx="123.169" cy="129.851" fill="#749923" rx="8.898" ry="11.708" transform="rotate(-38.4 123.17 129.85)"/>
        <ellipse cx="176.564" cy="127.966" fill="#749923" rx="8.898" ry="11.707"/>
        <ellipse cx="105.369" cy="127.041" fill="#9AB256" rx="8.898" ry="11.708" transform="rotate(-38.4 105.369 127.041)"/>
        <ellipse cx="153.148" cy="124.219" fill="#9AB256" rx="11.708" ry="8.898" transform="rotate(-60 153.148 124.22)"/>
        <ellipse cx="146.597" cy="129.852" fill="#749923" rx="8.898" ry="11.708" transform="rotate(-75.55 146.597 129.852)"/>
        <ellipse cx="161.572" cy="132.663" fill="#9AB256" rx="11.708" ry="8.898" transform="rotate(-12.63 161.572 132.663)"/>
        <path fill="#FFF" d="M253.717 73.628l19.332-7.136 7.136 19.33-19.333 7.136zM248.502 91.984l13.247 3.414-3.414 13.246-13.248-3.414z"/>
        <ellipse cx="171.413" cy="131.244" fill="#687F29" rx="1" ry="1"/>
        <ellipse cx="197.64" cy="129.371" fill="#687F29" rx="1" ry="1"/>
        <ellipse cx="108.543" cy="134.353" fill="#687F29" rx="1" ry="1"/>
    </g>
</svg>
