<svg xmlns="http://www.w3.org/2000/svg" width="149" height="149" viewBox="0 0 149 149">
    <g fill="none" fill-rule="nonzero">
        <path fill="#FFB600" d="M74.031 18.91c-22.542-.003-42.866 13.574-51.495 34.4-8.628 20.825-3.86 44.798 12.08 60.737 15.939 15.94 39.912 20.708 60.737 12.08 20.826-8.629 34.403-28.954 34.399-51.496a55.72 55.72 0 0 0-55.72-55.72z"/>
        <path fill="#FF4E00" d="M119.097 72.035a5.014 5.014 0 1 0 10.025-.19 5.014 5.014 0 0 0-10.025.19zM43.725 102.435a4.854 4.854 0 1 0 4.752-4.976 4.845 4.845 0 0 0-4.752 4.976z" opacity=".4"/>
        <path fill="#FFB600" d="M69.768 4.564a4.564 4.564 0 1 1 9.127 0 4.564 4.564 0 0 1-9.127 0zM69.768 144.108a4.564 4.564 0 1 1 9.127 0 4.564 4.564 0 0 1-9.127 0zM144.099 69.768a4.564 4.564 0 1 1-4.554 4.563 4.573 4.573 0 0 1 4.554-4.563zM4.564 69.768a4.564 4.564 0 1 1 0 9.127 4.564 4.564 0 0 1 0-9.127zM120.437 21.778a4.564 4.564 0 1 1 6.46 6.448 4.564 4.564 0 0 1-6.46-6.448zM21.769 120.446a4.564 4.564 0 1 1 6.46 6.448 4.564 4.564 0 0 1-6.46-6.448zM126.894 120.437a4.564 4.564 0 1 1-6.448 0 4.554 4.554 0 0 1 6.448 0zM28.226 21.769a4.564 4.564 0 1 1-6.448 0 4.573 4.573 0 0 1 6.448 0z"/>
        <g fill="#FFF" opacity=".5">
            <path d="M97.703 8.434a4.564 4.564 0 1 1 2.39 5.997 4.573 4.573 0 0 1-2.39-5.997zM42.573 136.63a4.564 4.564 0 1 1 8.39 3.596 4.564 4.564 0 0 1-8.39-3.596zM140.229 97.703a4.564 4.564 0 1 1-3.61 8.383 4.564 4.564 0 0 1 3.61-8.383zM12.042 42.573a4.564 4.564 0 1 1-5.998 2.408 4.573 4.573 0 0 1 5.998-2.408zM137.455 44.269a4.564 4.564 0 1 1-2.512 5.922 4.554 4.554 0 0 1 2.512-5.922zM7.825 95.932a4.564 4.564 0 1 1-2.55 5.922 4.554 4.554 0 0 1 2.55-5.922zM104.403 137.455a4.564 4.564 0 1 1-8.476 3.385 4.564 4.564 0 0 1 8.476-3.385zM52.74 7.834a4.564 4.564 0 1 1-8.466 3.41 4.564 4.564 0 0 1 8.466-3.41z"/>
        </g>
        <path fill="#FFF" d="M59.844 73.544c-3.515.431-6.438 3.627-8.706 9.493a1.303 1.303 0 0 0 .74 1.677c.15.056.309.085.469.085a1.293 1.293 0 0 0 1.209-.825c1.874-4.835 4.142-7.553 6.56-7.862 3.748-.46 7.29 4.48 7.318 4.535a1.303 1.303 0 0 0 2.127-1.49c-.15-.253-4.404-6.26-9.717-5.613zM115.264 65.373c-.215-.263-5.332-6.495-10.758-5.408-3.345.685-5.894 3.936-7.553 9.671a1.303 1.303 0 0 0 .89 1.603 1.2 1.2 0 0 0 .356 0 1.303 1.303 0 0 0 1.247-.937c.937-3.261 2.67-7.263 5.566-7.853 3.224-.647 7.038 3.027 8.237 4.498a1.293 1.293 0 0 0 2.015-1.574zM70.611 99.108a22.49 22.49 0 0 0 39.537-12.444L70.61 99.108z"/>
    </g>
</svg>
