<svg xmlns="http://www.w3.org/2000/svg" width="320" height="249" viewBox="0 0 320 249">
    <g fill="none" fill-rule="nonzero">
        <path fill="#FFF" d="M194.6 63.991l-42.164-31.35a2.417 2.417 0 0 0-3.622.937l-1.295 2.695a21.867 21.867 0 0 1 2.815-5.345l.226-.046-.179-.14V9.856c.079-4.607-3.415-8.496-8.014-8.92a8.637 8.637 0 0 0-6.448 2.295 8.593 8.593 0 0 0-2.739 6.26v33.793c.095 13.304 10.513 24.257 23.826 25.05.163.014.326.014.488 0h35.66a2.42 2.42 0 0 0 2.286-1.655 2.412 2.412 0 0 0-.84-2.689z"/>
        <ellipse cx="35.754" cy="176.575" fill="#CCD5E2" rx="35.754" ry="35.665"/>
        <ellipse cx="180.364" cy="165.22" fill="#FFF" rx="92.903" ry="83.78"/>
        <ellipse cx="269.982" cy="176.453" fill="#CCD5E2" rx="49.267" ry="49.145"/>
        <path fill="#CCD5E2" d="M151.273 45.868c9.384 3.745 29.09 7.601 29.09 7.601L150.56 30.891l-.226.047s-8.445 11.186.939 14.93z"/>
        <rect width="1.877" height="27.147" x="152.211" y="65.526" fill="#FFB600" rx=".938"/>
        <rect width="1.877" height="27.147" x="155.965" y="65.526" fill="#FFB600" rx=".938"/>
        <ellipse cx="141.889" cy="8.425" fill="#3960AD" rx="1.877" ry="1.872"/>
        <path fill="#FFB600" d="M140.218 14.041h-11.655a1.78 1.78 0 0 0-1.67 1.873v4.68l2.505-2.808h10.839a1.78 1.78 0 0 0 1.67-1.872 1.776 1.776 0 0 0-.455-1.286 1.785 1.785 0 0 0-1.234-.587z"/>
    </g>
</svg>
