<svg xmlns="http://www.w3.org/2000/svg" width="154" height="59" viewBox="0 0 154 59">
    <g fill="none" fill-rule="nonzero">
        <path fill="#B48DC6" d="M0 7.764h82.287s-24.678 21.54-57.807 21.54C4.254 29.303 0 7.763 0 7.763z"/>
        <ellipse cx="14.207" cy="12.643" fill="#B48DC6" rx="7.043" ry="7.024"/>
        <path fill="#FFF" d="M40.622 0L23.72 7.492h16.902z"/>
        <ellipse cx="13.954" cy="12.465" fill="#FFF" rx="5.343" ry="5.329"/>
        <ellipse cx="13.954" cy="12.465" fill="#154084" rx="2.132" ry="2.126"/>
        <path fill="#FFF" d="M32.293 24.059a3.067 3.067 0 0 1 0 4.345 3.087 3.087 0 0 1-4.357 0c-1.211-1.198-4.216-8.55-4.216-8.55s7.371 3.006 8.573 4.205zM47.543 4.224L40.18 7.492h7.362zM98.954.187L82.052 7.68l22.687-.3zM91.677 12.624l-7.362-3.259h7.362z"/>
        <path fill="#FFB600" d="M61.703 45.673h47.374s-14.236 12.39-33.279 12.39c-11.644 0-14.095-12.39-14.095-12.39z"/>
        <ellipse cx="69.882" cy="48.483" fill="#FFB600" rx="4.057" ry="4.046"/>
        <path fill="#FFF" d="M85.094 41.206l-9.737 4.318h9.737z"/>
        <ellipse cx="69.741" cy="48.389" fill="#FFF" rx="3.071" ry="3.062"/>
        <ellipse cx="69.741" cy="48.389" fill="#154084" rx="1.23" ry="1.227"/>
        <path fill="#FFF" d="M80.296 55.057a1.767 1.767 0 0 1-.763 3.025 1.778 1.778 0 0 1-1.744-.524c-.695-.693-2.432-4.917-2.432-4.917s4.244 1.723 4.939 2.416zM89.076 43.641l-4.235 1.883h4.235zM118.674 41.319l-9.728 4.308h9.728zM114.486 48.474L110.24 46.6h4.245z"/>
        <path fill="#AAAFAF" d="M117.932 21.277a3.15 3.15 0 0 0-4.517 0h-4.094s1.906 9.628 10.95 9.628c14.808 0 25.841-9.637 25.841-9.637l-28.18.01z"/>
        <path fill="#FFF" d="M127.482 17.812l-7.55 3.344h7.55z"/>
        <ellipse cx="115.566" cy="23.385" fill="#FFF" rx="2.385" ry="2.379"/>
        <ellipse cx="115.566" cy="23.385" fill="#154084" rx="1" ry="1"/>
        <path fill="#FFF" d="M123.763 28.563a1.375 1.375 0 0 1-.619 2.305 1.384 1.384 0 0 1-1.334-.357 24.734 24.734 0 0 1-1.878-3.82c1.329.513 2.61 1.14 3.831 1.872zM130.58 19.704l-3.295 1.452h3.296zM153.568 17.897l-7.56 3.343h7.56zM150.31 23.46l-3.287-1.461h3.287z"/>
    </g>
</svg>
