<svg xmlns="http://www.w3.org/2000/svg" width="171" height="98" viewBox="0 0 171 98">
    <g fill="none">
        <path fill="#D6B2C3" d="M30.61 25.91a23.67 23.67 0 0116.974-7.159 23.67 23.67 0 0116.973 7.158H170.23v57.158c-26.13 8.605-55.98 14.681-88.216 14.681C14.254 97.748 0 25.881 0 25.881l30.61.028z"/>
        <path fill="#FFF" d="M136.058 0L79.44 24.995 136.058 24.995z"/>
        <ellipse cx="46.743" cy="41.599" fill="#FFF" rx="17.88" ry="17.761"/>
        <ellipse cx="46.743" cy="41.599" fill="#154084" rx="7.15" ry="7.103"/>
        <path fill="#FFF" d="M159.246 14.103L134.583 24.995 159.246 24.995zM13.079 52.229L15.39 46.741 19.026 51.483zM16.959 57.297L19.28 51.809 22.916 56.551zM20.849 62.375L23.16 56.877 26.796 61.619zM24.729 67.433L27.05 61.936 30.677 66.677z"/>
        <path fill="#C689A9" d="M103.52 40.833c0-5.67-4.626-10.266-10.334-10.266-1.038 0-1.88.835-1.88 1.866 0 1.031.842 1.867 1.88 1.867 3.632 0 6.577 2.925 6.577 6.533 0 3.609-2.945 6.534-6.577 6.534-1.038 0-1.88.835-1.88 1.866v.243c0 1.03.842 1.867 1.88 1.867 3.632 0 6.577 2.925 6.577 6.533 0 3.608-2.945 6.533-6.577 6.533-1.038 0-1.88.836-1.88 1.867v.243c0 1.03.842 1.866 1.88 1.866 3.632 0 6.577 2.925 6.577 6.534 0 3.608-2.945 6.533-6.577 6.533-1.038 0-1.88.836-1.88 1.867 0 1.03.842 1.866 1.88 1.866 4.544-.006 8.551-2.96 9.873-7.28a10.232 10.232 0 00-4.123-11.508 10.248 10.248 0 004.57-8.521c0-3.42-1.713-6.614-4.57-8.521a10.249 10.249 0 004.585-8.522zM121.654 46.881c0-5.67-4.627-10.266-10.335-10.266-1.038 0-1.879.835-1.879 1.866 0 1.031.841 1.867 1.88 1.867 3.631 0 6.576 2.925 6.576 6.533 0 3.609-2.945 6.534-6.577 6.534-1.038 0-1.879.835-1.879 1.866a.399.399 0 010 .243c0 1.03.841 1.867 1.88 1.867 3.631 0 6.576 2.925 6.576 6.533 0 3.608-2.945 6.533-6.577 6.533-1.038 0-1.879.836-1.879 1.867 0 1.03.841 1.867 1.88 1.867 4.546-.003 8.557-2.956 9.881-7.276a10.232 10.232 0 00-4.122-11.512 10.248 10.248 0 004.575-8.522zM139.797 40.833c0-5.67-4.627-10.266-10.335-10.266-1.038 0-1.88.835-1.88 1.866 0 1.031.842 1.867 1.88 1.867 3.632 0 6.577 2.925 6.577 6.533 0 3.609-2.945 6.534-6.577 6.534-1.038 0-1.88.835-1.88 1.866v.243c0 1.03.842 1.867 1.88 1.867 3.632 0 6.577 2.925 6.577 6.533 0 3.608-2.945 6.533-6.577 6.533-1.038 0-1.88.836-1.88 1.867 0 1.03.842 1.867 1.88 1.867 4.546-.003 8.557-2.956 9.882-7.276a10.232 10.232 0 00-4.122-11.512 10.248 10.248 0 004.575-8.522zM148.29 36.615c-1.037 0-1.878.835-1.878 1.866 0 1.031.841 1.867 1.879 1.867 3.632 0 6.577 2.925 6.577 6.533 0 3.609-2.945 6.534-6.577 6.534-1.038 0-1.88.835-1.88 1.866 0 1.031.842 1.867 1.88 1.867 5.708 0 10.335-4.597 10.335-10.267 0-5.67-4.627-10.266-10.335-10.266z"/>
        <path fill="#FFF" d="M108.162 80.267a10.218 10.218 0 01-.327 14.179c-3.906 3.88-10.193 4.023-14.274.325-4.03-4.004-14.093-28.532-14.093-28.532s24.663 10.024 28.694 14.028z"/>
    </g>
</svg>
