<svg xmlns="http://www.w3.org/2000/svg" width="119" height="58" viewBox="0 0 119 58">
    <g fill="none" fill-rule="nonzero">
        <path fill="#759BD3" d="M118.42 7.755H36.31S60.942 29.271 93.99 29.271c20.183 0 24.428-21.516 24.428-21.516z"/>
        <ellipse cx="104.242" cy="12.629" fill="#759BD3" rx="7.028" ry="7.016"/>
        <path fill="#FFF" d="M77.893 0L94.76 7.484H77.893z"/>
        <ellipse cx="104.495" cy="12.451" fill="#FFF" rx="5.332" ry="5.323"/>
        <ellipse cx="104.495" cy="12.451" fill="#154084" rx="2.127" ry="2.124"/>
        <path fill="#FFF" d="M86.205 24.033a3.07 3.07 0 0 0 .004 4.345 3.081 3.081 0 0 0 4.353-.005c1.2-1.197 4.207-8.54 4.207-8.54s-7.365 3.002-8.564 4.2zM70.978 4.219l7.346 3.265h-7.346zM19.677.187l16.866 7.484H19.677zM26.939 12.61l7.346-3.255H26.94z"/>
        <path fill="#75C8D1" d="M56.848 45.624H9.576S23.753 58 42.784 58c11.619 0 14.064-12.376 14.064-12.376z"/>
        <ellipse cx="48.687" cy="48.43" fill="#75C8D1" rx="4.048" ry="4.041"/>
        <path fill="#FFF" d="M33.517 41.161l9.707 4.313h-9.707z"/>
        <ellipse cx="48.827" cy="48.336" fill="#FFF" rx="3.064" ry="3.059"/>
        <ellipse cx="48.827" cy="48.336" fill="#154084" rx="1.227" ry="1.225"/>
        <path fill="#FFF" d="M38.296 54.997a1.766 1.766 0 0 0 .056 2.441c.67.668 1.746.693 2.445.057.694-.692 2.427-4.911 2.427-4.911s-4.235 1.72-4.928 2.413zM29.534 43.594l4.226 1.88h-4.226zM0 41.274l9.707 4.303H0zM4.18 48.42l4.234-1.87H4.18z"/>
    </g>
</svg>
