<svg xmlns="http://www.w3.org/2000/svg" width="267" height="93" viewBox="0 0 267 93">
    <g fill="none">
        <path fill="#75C8D1" d="M256.6 58.7c-2.9-3-7.6-3.1-10.6-.2l-.2.2h-67.1s26.3 23 61.5 23c21.5 0 26.1-23 26.1-23h-9.7z"/>
        <path fill="#FFF" d="M223.1 50.4L241.1 58.4 223.1 58.4z"/>
        <circle cx="251.5" cy="63.7" r="5.7" fill="#FFF"/>
        <circle cx="251.5" cy="63.7" r="2.3" fill="#154084"/>
        <path fill="#FFF" d="M232 76.1c-1.3 1.3-1.3 3.4 0 4.6 1.3 1.2 3.4 1.3 4.6 0 1.3-1.3 4.5-9.1 4.5-9.1s-7.9 3.2-9.1 4.5zM215.7 54.9L223.6 58.4 215.7 58.4zM161 50.6L179 58.6 161 58.6zM168.7 63.9L176.6 60.4 168.7 60.4z"/>
        <path fill="#FFB600" d="M209.7 8.3c-2.9-3-7.6-3.1-10.6-.2l-.2.2h-67.1s26.3 23 61.6 23c21.5 0 26.1-23 26.1-23h-9.8z"/>
        <path fill="#FFF" d="M176.2 0L194.2 8 176.2 8z"/>
        <circle cx="204.6" cy="13.3" r="5.7" fill="#FFF"/>
        <circle cx="204.6" cy="13.3" r="2.3" fill="#154084"/>
        <path fill="#FFF" d="M185.1 25.7c-1.3 1.3-1.3 3.4 0 4.6 1.3 1.2 3.4 1.3 4.6 0 1.3-1.3 4.5-9.1 4.5-9.1s-7.9 3.2-9.1 4.5zM168.8 4.5L176.7 8 168.8 8zM114.1.2L132.1 8.2 114.1 8.2zM121.8 13.5L129.7 10 121.8 10z"/>
        <path fill="#D6B2C3" d="M151.8 79.3c-1.6-1.7-4.4-1.8-6.1-.1l-.1.1H107s15.1 13.2 35.4 13.2c12.4 0 15-13.2 15-13.2h-5.6z"/>
        <path fill="#FFF" d="M132.5 74.6L142.8 79.2 132.5 79.2z"/>
        <circle cx="148.8" cy="82.2" r="3.3" fill="#FFF"/>
        <circle cx="148.8" cy="82.2" r="1.3" fill="#154084"/>
        <path fill="#FFF" d="M137.6 89.4c-.8.7-.9 1.9-.3 2.7.7.8 1.9.9 2.7.3l.3-.3c.7-.7 2.6-5.3 2.6-5.3s-4.6 1.8-5.3 2.6zM128.2 77.2L132.7 79.2 128.2 79.2zM96.7 74.7L107.1 79.3 96.7 79.3zM101.2 82.3L105.7 80.3 101.2 80.3z"/>
        <path fill="#76C476" d="M102.5 37.5c-1.6-1.7-4.4-1.8-6.1-.1l-.1.1H57.7s15.1 13.2 35.4 13.2c12.4 0 15-13.2 15-13.2h-5.6z"/>
        <path fill="#FFF" d="M83.2 32.7L93.6 37.3 83.2 37.3z"/>
        <circle cx="99.5" cy="40.4" r="3.3" fill="#FFF"/>
        <circle cx="99.5" cy="40.4" r="1.3" fill="#154084"/>
        <path fill="#FFF" d="M88.3 47.5c-.7.7-.7 1.9 0 2.7.7.7 1.9.7 2.7 0 .7-.7 2.6-5.3 2.6-5.3s-4.6 1.9-5.3 2.6zM79 35.3L83.5 37.3 79 37.3zM47.4 32.8L57.8 37.4 47.4 37.4zM51.9 40.5L56.4 38.5 51.9 38.5z"/>
        <g transform="translate(0 76)">
            <path fill="#AAAFAF" d="M38 4.1c1.3-1.3 3.4-1.4 4.7-.1l.1.1h4.4s-2 10.3-11.7 10.3C19.7 14.3 8 4.1 8 4.1h30z"/>
            <path fill="#FFF" d="M27.8 0.4L35.8 3.9 27.8 3.9z"/>
            <circle cx="40.5" cy="6.3" r="2.5" fill="#FFF"/>
            <circle cx="40.5" cy="6.3" r="1" fill="#154084"/>
            <path fill="#FFF" d="M31.7 11.8c-.6.6-.6 1.5 0 2.1.6.6 1.5.6 2.1 0 .8-1.3 1.5-2.7 2-4.1-1.4.6-2.8 1.2-4.1 2zM24.5 2.4L28 3.9 24.5 3.9zM0 .4L8.1 4 0 4zM3.5 6.4L7 4.8 3.5 4.8z"/>
        </g>
    </g>
</svg>
