<svg xmlns="http://www.w3.org/2000/svg" width="160" height="13" viewBox="0 0 160 13">
    <g fill="none" fill-rule="nonzero">
        <path fill="#FFF" d="M35.556 3.445a3.118 3.118 0 0 1 2.25-.958c.85 0 1.664.347 2.25.958h4.08S42.189 13 33.179 13c-14.756 0-25.75-9.555-25.75-9.555h28.127z" opacity=".5"/>
        <path fill="#FFF" d="M25.993 0l7.523 3.324h-7.523z"/>
        <ellipse cx="37.867" cy="5.525" fill="#FFF" rx="2.377" ry="2.359"/>
        <ellipse cx="37.867" cy="5.525" fill="#154084" rx="1" ry="1"/>
        <path fill="#FFF" d="M29.698 10.67c-.48.54-.453 1.36.062 1.869.516.509 1.341.532 1.884.052a24.067 24.067 0 0 0 1.872-3.788 23.776 23.776 0 0 0-3.818 1.866zM22.905 1.876l3.284 1.448h-3.284zM0 .084l7.532 3.324H0zM3.237 5.6l3.285-1.45H3.237z"/>
        <path fill="#FFF" d="M93.37 3.445a3.127 3.127 0 0 1 2.256-.958c.852 0 1.667.346 2.255.958h4.107S100.061 13 91.05 13c-14.755 0-25.759-9.555-25.759-9.555h28.08z" opacity=".5"/>
        <path fill="#FFF" d="M83.855 0l7.532 3.324h-7.532z"/>
        <ellipse cx="95.738" cy="5.525" fill="#FFF" rx="2.377" ry="2.359"/>
        <ellipse cx="95.738" cy="5.525" fill="#154084" rx="1" ry="1"/>
        <path fill="#FFF" d="M87.57 10.67a1.341 1.341 0 0 0 0 1.921c.536.528 1.4.528 1.936 0a23.447 23.447 0 0 0 1.872-3.788 23.775 23.775 0 0 0-3.808 1.866zM80.777 1.876l3.274 1.448h-3.274zM57.871.084l7.523 3.324h-7.523zM61.109 5.6l3.284-1.45h-3.284z"/>
        <path fill="#FFF" d="M151.242 3.445a3.118 3.118 0 0 1 2.25-.958c.851 0 1.664.347 2.25.958h4.08S157.922 13 148.912 13c-14.755 0-25.75-9.546-25.75-9.546l28.08-.009z" opacity=".5"/>
        <path fill="#FFF" d="M141.726 0l7.532 3.324h-7.532z"/>
        <ellipse cx="153.609" cy="5.525" fill="#FFF" rx="2.377" ry="2.359"/>
        <ellipse cx="153.609" cy="5.525" fill="#154084" rx="1" ry="1"/>
        <path fill="#FFF" d="M145.44 10.67a1.341 1.341 0 0 0 0 1.921c.537.528 1.402.528 1.938 0a24.262 24.262 0 0 0 1.871-3.788 23.775 23.775 0 0 0-3.808 1.866zM138.639 1.876l3.284 1.448h-3.284zM115.733.084l7.532 3.324h-7.532zM118.98 5.6l3.284-1.45h-3.284z"/>
    </g>
</svg>
